# xmcd
#
# Track frame offsets:
#	183
#	13555
#	28558
#	39048
#	51650
#	70908
#	91155
#	107873
#	118885
#	133535
#	152860
#	164693
#	176743
#	189763
#	205310
#	223480
#	239223
#	252215
#	267790
#	282678
#	301108
#	313113
#	324580
#
# Disc length: 4548 seconds
#
# Revision: 3
# Processed by: cddbd v1.5.1PL0 Copyright (c) Steve Scherf et al.
# Submitted via: MusicManager 7.0.3.0 
#
DISCID=5c11c217
DTITLE=Various Artist - Collected Works - 15 Years of Stony Plain - Disc 2
DYEAR=1900
DGENRE=
TTITLE0=Alison Krauss - I've Got That Old Feeling
TTITLE1=Guy Clark - Come From The Heart
TTITLE2=Doc Watson - Tucker's Barn
TTITLE3=Ricky Scraggs - Forgive Me
TTITLE4=John Prine and Bonnie Raitt - Angel From Montgomery
TTITLE5=Steve Goodman - You Better Get It While You Can (Ballad of Carl Martin)
TTITLE6=Christine Lavin - Sensitive New Age Guys
TTITLE7=Lucinda Williams - I Just Wanted To See You So Bad
TTITLE8=Grievous Angels - Ballad of Leonard and Cecile
TTITLE9=Jr. Gone Wild - Poet's Highway
TTITLE10=Townes Van Zandt - Still Lookin' For You
TTITLE11=Loudon Wainwright III - The Grammy Song
TTITLE12=Paul Hahn - Moma Make The Radio (Play Me A Cowboy Song)
TTITLE13=Ian Tyson - Irving Berlin (Is 100 Years Old Today)
TTITLE14=Tom Russell Band - Blue Wing
TTITLE15=Prairie Oyster - Play Me Some Honky Tonk Music
TTITLE16=Hans Theessink - Johnny and the Devil
TTITLE17=Roy Rogers - Black Cat Bone
TTITLE18=Fairport Connection - Cup of Tea
TTITLE19=Spirit of the West - The Crawl
TTITLE20=Morgan Davis - Bar B Q
TTITLE21=Jonathan Richman - You're Crazy For Taking The Bus
TTITLE22=Shuffle Demons - Spadina Bus
EXTD=
EXTT0=
EXTT1=
EXTT2=
EXTT3=
EXTT4=
EXTT5=
EXTT6=
EXTT7=
EXTT8=
EXTT9=
EXTT10=
EXTT11=
EXTT12=
EXTT13=
EXTT14=
EXTT15=
EXTT16=
EXTT17=
EXTT18=
EXTT19=
EXTT20=
EXTT21=
EXTT22=
PLAYORDER=
